<?xml version="1.0" encoding="UTF-8" standalone="no"?><!DOCTYPE svg PUBLIC "-//W3C//DTD SVG 1.1//EN" "http://www.w3.org/Graphics/SVG/1.1/DTD/svg11.dtd"><!-- Generated by graphviz version 2.40.1 (20161225.0304)
 --><!-- Title: DataflowGraph Pages: 1 --><svg xmlns="http://www.w3.org/2000/svg" xmlns:xlink="http://www.w3.org/1999/xlink" width="772pt" height="1505pt" viewBox="0.00 0.00 771.70 1505.00">
<g id="graph0" class="graph" transform="scale(1 1) rotate(0) translate(4 1501)">
<title>DataflowGraph</title>
<polygon fill="#ffffff" stroke="transparent" points="-4,4 -4,-1501 767.7,-1501 767.7,4 -4,4"/>
<!-- VariableSetNode:PatientVarSet -->
<g id="node1" class="node">
<title>VariableSetNode:PatientVarSet</title>
<polygon fill="none" stroke="#000000" points="396.0091,-1460.5 396.0091,-1496.5 590.0541,-1496.5 590.0541,-1460.5 396.0091,-1460.5"/>
<text text-anchor="middle" x="493.0316" y="-1474.3" font-family="Times,serif" font-size="14.00" fill="#000000">VariableSetNode:PatientVarSet</text>
</g>
<!-- VariableSetNode:PatientCardNoVarSet -->
<g id="node2" class="node">
<title>VariableSetNode:PatientCardNoVarSet</title>
<polygon fill="none" stroke="#000000" points="373.8499,-1387.5 373.8499,-1423.5 612.2133,-1423.5 612.2133,-1387.5 373.8499,-1387.5"/>
<text text-anchor="middle" x="493.0316" y="-1401.3" font-family="Times,serif" font-size="14.00" fill="#000000">VariableSetNode:PatientCardNoVarSet</text>
</g>
<!-- VariableSetNode:PatientVarSet&#45;&gt;VariableSetNode:PatientCardNoVarSet -->
<g id="edge1" class="edge">
<title>VariableSetNode:PatientVarSet-&gt;VariableSetNode:PatientCardNoVarSet</title>
<path fill="none" stroke="#000000" d="M493.0316,-1460.4551C493.0316,-1452.3828 493.0316,-1442.6764 493.0316,-1433.6817"/>
<polygon fill="#000000" stroke="#000000" points="496.5317,-1433.5903 493.0316,-1423.5904 489.5317,-1433.5904 496.5317,-1433.5903"/>
</g>
<!-- VariableSetNode:DoctorVarSet -->
<g id="node3" class="node">
<title>VariableSetNode:DoctorVarSet</title>
<polygon fill="none" stroke="#000000" points="396.0147,-1314.5 396.0147,-1350.5 590.0485,-1350.5 590.0485,-1314.5 396.0147,-1314.5"/>
<text text-anchor="middle" x="493.0316" y="-1328.3" font-family="Times,serif" font-size="14.00" fill="#000000">VariableSetNode:DoctorVarSet</text>
</g>
<!-- VariableSetNode:PatientCardNoVarSet&#45;&gt;VariableSetNode:DoctorVarSet -->
<g id="edge2" class="edge">
<title>VariableSetNode:PatientCardNoVarSet-&gt;VariableSetNode:DoctorVarSet</title>
<path fill="none" stroke="#000000" d="M493.0316,-1387.4551C493.0316,-1379.3828 493.0316,-1369.6764 493.0316,-1360.6817"/>
<polygon fill="#000000" stroke="#000000" points="496.5317,-1360.5903 493.0316,-1350.5904 489.5317,-1360.5904 496.5317,-1360.5903"/>
</g>
<!-- VariableSetNode:HospitalVarSet -->
<g id="node4" class="node">
<title>VariableSetNode:HospitalVarSet</title>
<polygon fill="none" stroke="#000000" points="391.7321,-1241.5 391.7321,-1277.5 594.3311,-1277.5 594.3311,-1241.5 391.7321,-1241.5"/>
<text text-anchor="middle" x="493.0316" y="-1255.3" font-family="Times,serif" font-size="14.00" fill="#000000">VariableSetNode:HospitalVarSet</text>
</g>
<!-- VariableSetNode:DoctorVarSet&#45;&gt;VariableSetNode:HospitalVarSet -->
<g id="edge3" class="edge">
<title>VariableSetNode:DoctorVarSet-&gt;VariableSetNode:HospitalVarSet</title>
<path fill="none" stroke="#000000" d="M493.0316,-1314.4551C493.0316,-1306.3828 493.0316,-1296.6764 493.0316,-1287.6817"/>
<polygon fill="#000000" stroke="#000000" points="496.5317,-1287.5903 493.0316,-1277.5904 489.5317,-1287.5904 496.5317,-1287.5903"/>
</g>
<!-- VariableSetNode:HospitalIdVarSet -->
<g id="node5" class="node">
<title>VariableSetNode:HospitalIdVarSet</title>
<polygon fill="none" stroke="#000000" points="385.9018,-1168.5 385.9018,-1204.5 600.1614,-1204.5 600.1614,-1168.5 385.9018,-1168.5"/>
<text text-anchor="middle" x="493.0316" y="-1182.3" font-family="Times,serif" font-size="14.00" fill="#000000">VariableSetNode:HospitalIdVarSet</text>
</g>
<!-- VariableSetNode:HospitalVarSet&#45;&gt;VariableSetNode:HospitalIdVarSet -->
<g id="edge4" class="edge">
<title>VariableSetNode:HospitalVarSet-&gt;VariableSetNode:HospitalIdVarSet</title>
<path fill="none" stroke="#000000" d="M493.0316,-1241.4551C493.0316,-1233.3828 493.0316,-1223.6764 493.0316,-1214.6817"/>
<polygon fill="#000000" stroke="#000000" points="496.5317,-1214.5903 493.0316,-1204.5904 489.5317,-1214.5904 496.5317,-1214.5903"/>
</g>
<!-- LoggerNode:HospitalIdVarLogger -->
<g id="node6" class="node">
<title>LoggerNode:HospitalIdVarLogger</title>
<polygon fill="none" stroke="#000000" points="387.4579,-1095.5 387.4579,-1131.5 598.6053,-1131.5 598.6053,-1095.5 387.4579,-1095.5"/>
<text text-anchor="middle" x="493.0316" y="-1109.3" font-family="Times,serif" font-size="14.00" fill="#000000">LoggerNode:HospitalIdVarLogger</text>
</g>
<!-- VariableSetNode:HospitalIdVarSet&#45;&gt;LoggerNode:HospitalIdVarLogger -->
<g id="edge5" class="edge">
<title>VariableSetNode:HospitalIdVarSet-&gt;LoggerNode:HospitalIdVarLogger</title>
<path fill="none" stroke="#000000" d="M493.0316,-1168.4551C493.0316,-1160.3828 493.0316,-1150.6764 493.0316,-1141.6817"/>
<polygon fill="#000000" stroke="#000000" points="496.5317,-1141.5903 493.0316,-1131.5904 489.5317,-1141.5904 496.5317,-1141.5903"/>
</g>
<!-- VariableSetNode:AppointmentDateVarSet -->
<g id="node7" class="node">
<title>VariableSetNode:AppointmentDateVarSet</title>
<polygon fill="none" stroke="#000000" points="365.2959,-1022.5 365.2959,-1058.5 620.7673,-1058.5 620.7673,-1022.5 365.2959,-1022.5"/>
<text text-anchor="middle" x="493.0316" y="-1036.3" font-family="Times,serif" font-size="14.00" fill="#000000">VariableSetNode:AppointmentDateVarSet</text>
</g>
<!-- LoggerNode:HospitalIdVarLogger&#45;&gt;VariableSetNode:AppointmentDateVarSet -->
<g id="edge6" class="edge">
<title>LoggerNode:HospitalIdVarLogger-&gt;VariableSetNode:AppointmentDateVarSet</title>
<path fill="none" stroke="#000000" d="M493.0316,-1095.4551C493.0316,-1087.3828 493.0316,-1077.6764 493.0316,-1068.6817"/>
<polygon fill="#000000" stroke="#000000" points="496.5317,-1068.5903 493.0316,-1058.5904 489.5317,-1068.5904 496.5317,-1068.5903"/>
</g>
<!-- LoggerNode:DebugLoggerInitReservation -->
<g id="node8" class="node">
<title>LoggerNode:DebugLoggerInitReservation</title>
<polygon fill="none" stroke="#000000" points="365.683,-949.5 365.683,-985.5 620.3802,-985.5 620.3802,-949.5 365.683,-949.5"/>
<text text-anchor="middle" x="493.0316" y="-963.3" font-family="Times,serif" font-size="14.00" fill="#000000">LoggerNode:DebugLoggerInitReservation</text>
</g>
<!-- VariableSetNode:AppointmentDateVarSet&#45;&gt;LoggerNode:DebugLoggerInitReservation -->
<g id="edge7" class="edge">
<title>VariableSetNode:AppointmentDateVarSet-&gt;LoggerNode:DebugLoggerInitReservation</title>
<path fill="none" stroke="#000000" d="M493.0316,-1022.4551C493.0316,-1014.3828 493.0316,-1004.6764 493.0316,-995.6817"/>
<polygon fill="#000000" stroke="#000000" points="496.5317,-995.5903 493.0316,-985.5904 489.5317,-995.5904 496.5317,-995.5903"/>
</g>
<!-- HttpResourcePathNode:ReserveResourcePath -->
<g id="node9" class="node">
<title>HttpResourcePathNode:ReserveResourcePath</title>
<polygon fill="none" stroke="#000000" points="355.9656,-876.5 355.9656,-912.5 630.0976,-912.5 630.0976,-876.5 355.9656,-876.5"/>
<text text-anchor="middle" x="493.0316" y="-890.3" font-family="Times,serif" font-size="14.00" fill="#000000">HttpResourcePathNode:ReserveResourcePath</text>
</g>
<!-- LoggerNode:DebugLoggerInitReservation&#45;&gt;HttpResourcePathNode:ReserveResourcePath -->
<g id="edge8" class="edge">
<title>LoggerNode:DebugLoggerInitReservation-&gt;HttpResourcePathNode:ReserveResourcePath</title>
<path fill="none" stroke="#000000" d="M493.0316,-949.4551C493.0316,-941.3828 493.0316,-931.6764 493.0316,-922.6817"/>
<polygon fill="#000000" stroke="#000000" points="496.5317,-922.5903 493.0316,-912.5904 489.5317,-922.5904 496.5317,-922.5903"/>
</g>
<!-- DataMapperNode:ReserveAppoinmentPayaload -->
<g id="node10" class="node">
<title>DataMapperNode:ReserveAppoinmentPayaload</title>
<polygon fill="none" stroke="#000000" points="349.7475,-803.5 349.7475,-839.5 636.3157,-839.5 636.3157,-803.5 349.7475,-803.5"/>
<text text-anchor="middle" x="493.0316" y="-817.3" font-family="Times,serif" font-size="14.00" fill="#000000">DataMapperNode:ReserveAppoinmentPayaload</text>
</g>
<!-- HttpResourcePathNode:ReserveResourcePath&#45;&gt;DataMapperNode:ReserveAppoinmentPayaload -->
<g id="edge9" class="edge">
<title>HttpResourcePathNode:ReserveResourcePath-&gt;DataMapperNode:ReserveAppoinmentPayaload</title>
<path fill="none" stroke="#000000" d="M493.0316,-876.4551C493.0316,-868.3828 493.0316,-858.6764 493.0316,-849.6817"/>
<polygon fill="#000000" stroke="#000000" points="496.5317,-849.5903 493.0316,-839.5904 489.5317,-849.5904 496.5317,-849.5903"/>
</g>
<!-- HttpPostClientNode:ReserveAppoinmentRequest -->
<g id="node11" class="node">
<title>HttpPostClientNode:ReserveAppoinmentRequest</title>
<polygon fill="none" stroke="#000000" points="346.2216,-730.5 346.2216,-766.5 639.8416,-766.5 639.8416,-730.5 346.2216,-730.5"/>
<text text-anchor="middle" x="493.0316" y="-744.3" font-family="Times,serif" font-size="14.00" fill="#000000">HttpPostClientNode:ReserveAppoinmentRequest</text>
</g>
<!-- DataMapperNode:ReserveAppoinmentPayaload&#45;&gt;HttpPostClientNode:ReserveAppoinmentRequest -->
<g id="edge10" class="edge">
<title>DataMapperNode:ReserveAppoinmentPayaload-&gt;HttpPostClientNode:ReserveAppoinmentRequest</title>
<path fill="none" stroke="#000000" d="M493.0316,-803.4551C493.0316,-795.3828 493.0316,-785.6764 493.0316,-776.6817"/>
<polygon fill="#000000" stroke="#000000" points="496.5317,-776.5903 493.0316,-766.5904 489.5317,-776.5904 496.5317,-776.5903"/>
</g>
<!-- VariableSetNode:ApptDoctorVarSet -->
<g id="node12" class="node">
<title>VariableSetNode:ApptDoctorVarSet</title>
<polygon fill="none" stroke="#000000" points="313.0161,-657.5 313.0161,-693.5 535.0471,-693.5 535.0471,-657.5 313.0161,-657.5"/>
<text text-anchor="middle" x="424.0316" y="-671.3" font-family="Times,serif" font-size="14.00" fill="#000000">VariableSetNode:ApptDoctorVarSet</text>
</g>
<!-- HttpPostClientNode:ReserveAppoinmentRequest&#45;&gt;VariableSetNode:ApptDoctorVarSet -->
<g id="edge11" class="edge">
<title>HttpPostClientNode:ReserveAppoinmentRequest-&gt;VariableSetNode:ApptDoctorVarSet</title>
<path fill="none" stroke="#000000" d="M475.9754,-730.4551C467.5991,-721.5932 457.3611,-710.7616 448.1954,-701.0646"/>
<polygon fill="#000000" stroke="#000000" points="450.5435,-698.4535 441.1307,-693.5904 445.4563,-703.262 450.5435,-698.4535"/>
</g>
<!-- HttpErrorHandlerNode:ApptSvcErrorHandler -->
<g id="node25" class="node">
<title>HttpErrorHandlerNode:ApptSvcErrorHandler</title>
<polygon fill="none" stroke="#000000" points="490.3632,-584.5 490.3632,-620.5 763.7,-620.5 763.7,-584.5 490.3632,-584.5"/>
<text text-anchor="middle" x="627.0316" y="-598.3" font-family="Times,serif" font-size="14.00" fill="#000000">HttpErrorHandlerNode:ApptSvcErrorHandler</text>
</g>
<!-- HttpPostClientNode:ReserveAppoinmentRequest&#45;&gt;HttpErrorHandlerNode:ApptSvcErrorHandler -->
<g id="edge25" class="edge">
<title>HttpPostClientNode:ReserveAppoinmentRequest-&gt;HttpErrorHandlerNode:ApptSvcErrorHandler</title>
<path fill="none" stroke="#000000" d="M510.1023,-730.399C520.0425,-719.8236 532.7925,-706.1986 544.0316,-694 564.3771,-671.9175 587.2927,-646.6226 603.8826,-628.2332"/>
<polygon fill="#000000" stroke="#000000" points="606.4834,-630.5754 610.5793,-620.8043 601.284,-625.8884 606.4834,-630.5754"/>
</g>
<!-- VariableSetNode:ApptPatientVarSet -->
<g id="node13" class="node">
<title>VariableSetNode:ApptPatientVarSet</title>
<polygon fill="none" stroke="#000000" points="250.0105,-584.5 250.0105,-620.5 472.0527,-620.5 472.0527,-584.5 250.0105,-584.5"/>
<text text-anchor="middle" x="361.0316" y="-598.3" font-family="Times,serif" font-size="14.00" fill="#000000">VariableSetNode:ApptPatientVarSet</text>
</g>
<!-- VariableSetNode:ApptDoctorVarSet&#45;&gt;VariableSetNode:ApptPatientVarSet -->
<g id="edge12" class="edge">
<title>VariableSetNode:ApptDoctorVarSet-&gt;VariableSetNode:ApptPatientVarSet</title>
<path fill="none" stroke="#000000" d="M408.4586,-657.4551C400.8864,-648.6809 391.6478,-637.9759 383.3431,-628.353"/>
<polygon fill="#000000" stroke="#000000" points="385.8271,-625.8742 376.6438,-620.5904 380.5277,-630.4477 385.8271,-625.8742"/>
</g>
<!-- VariableSetNode:AppointmentNumberVarSet -->
<g id="node14" class="node">
<title>VariableSetNode:AppointmentNumberVarSet</title>
<polygon fill="none" stroke="#000000" points="223.5729,-511.5 223.5729,-547.5 498.4903,-547.5 498.4903,-511.5 223.5729,-511.5"/>
<text text-anchor="middle" x="361.0316" y="-525.3" font-family="Times,serif" font-size="14.00" fill="#000000">VariableSetNode:AppointmentNumberVarSet</text>
</g>
<!-- VariableSetNode:ApptPatientVarSet&#45;&gt;VariableSetNode:AppointmentNumberVarSet -->
<g id="edge13" class="edge">
<title>VariableSetNode:ApptPatientVarSet-&gt;VariableSetNode:AppointmentNumberVarSet</title>
<path fill="none" stroke="#000000" d="M361.0316,-584.4551C361.0316,-576.3828 361.0316,-566.6764 361.0316,-557.6817"/>
<polygon fill="#000000" stroke="#000000" points="364.5317,-557.5903 361.0316,-547.5904 357.5317,-557.5904 364.5317,-557.5903"/>
</g>
<!-- HttpResourcePathNode:FeeResourcePath -->
<g id="node15" class="node">
<title>HttpResourcePathNode:FeeResourcePath</title>
<polygon fill="none" stroke="#000000" points="236.4025,-438.5 236.4025,-474.5 485.6607,-474.5 485.6607,-438.5 236.4025,-438.5"/>
<text text-anchor="middle" x="361.0316" y="-452.3" font-family="Times,serif" font-size="14.00" fill="#000000">HttpResourcePathNode:FeeResourcePath</text>
</g>
<!-- VariableSetNode:AppointmentNumberVarSet&#45;&gt;HttpResourcePathNode:FeeResourcePath -->
<g id="edge14" class="edge">
<title>VariableSetNode:AppointmentNumberVarSet-&gt;HttpResourcePathNode:FeeResourcePath</title>
<path fill="none" stroke="#000000" d="M361.0316,-511.4551C361.0316,-503.3828 361.0316,-493.6764 361.0316,-484.6817"/>
<polygon fill="#000000" stroke="#000000" points="364.5317,-484.5903 361.0316,-474.5904 357.5317,-484.5904 364.5317,-484.5903"/>
</g>
<!-- HttpGetClientNode:FeeServiceRequest -->
<g id="node16" class="node">
<title>HttpGetClientNode:FeeServiceRequest</title>
<polygon fill="none" stroke="#000000" points="242.6192,-365.5 242.6192,-401.5 479.444,-401.5 479.444,-365.5 242.6192,-365.5"/>
<text text-anchor="middle" x="361.0316" y="-379.3" font-family="Times,serif" font-size="14.00" fill="#000000">HttpGetClientNode:FeeServiceRequest</text>
</g>
<!-- HttpResourcePathNode:FeeResourcePath&#45;&gt;HttpGetClientNode:FeeServiceRequest -->
<g id="edge15" class="edge">
<title>HttpResourcePathNode:FeeResourcePath-&gt;HttpGetClientNode:FeeServiceRequest</title>
<path fill="none" stroke="#000000" d="M361.0316,-438.4551C361.0316,-430.3828 361.0316,-420.6764 361.0316,-411.6817"/>
<polygon fill="#000000" stroke="#000000" points="364.5317,-411.5903 361.0316,-401.5904 357.5317,-411.5904 364.5317,-411.5903"/>
</g>
<!-- VariableSetNode:ActualFeeVarSet -->
<g id="node17" class="node">
<title>VariableSetNode:ActualFeeVarSet</title>
<polygon fill="none" stroke="#000000" points="124.6865,-292.5 124.6865,-328.5 337.3767,-328.5 337.3767,-292.5 124.6865,-292.5"/>
<text text-anchor="middle" x="231.0316" y="-306.3" font-family="Times,serif" font-size="14.00" fill="#000000">VariableSetNode:ActualFeeVarSet</text>
</g>
<!-- HttpGetClientNode:FeeServiceRequest&#45;&gt;VariableSetNode:ActualFeeVarSet -->
<g id="edge16" class="edge">
<title>HttpGetClientNode:FeeServiceRequest-&gt;VariableSetNode:ActualFeeVarSet</title>
<path fill="none" stroke="#000000" d="M328.8968,-365.4551C311.709,-355.8035 290.3608,-343.8156 271.9933,-333.5016"/>
<polygon fill="#000000" stroke="#000000" points="273.6804,-330.4349 263.2473,-328.5904 270.253,-336.5384 273.6804,-330.4349"/>
</g>
<!-- HttpErrorHandlerNode:FeeSvcErrorHandler -->
<g id="node24" class="node">
<title>HttpErrorHandlerNode:FeeSvcErrorHandler</title>
<polygon fill="none" stroke="#000000" points="333.2559,-219.5 333.2559,-255.5 598.8073,-255.5 598.8073,-219.5 333.2559,-219.5"/>
<text text-anchor="middle" x="466.0316" y="-233.3" font-family="Times,serif" font-size="14.00" fill="#000000">HttpErrorHandlerNode:FeeSvcErrorHandler</text>
</g>
<!-- HttpGetClientNode:FeeServiceRequest&#45;&gt;HttpErrorHandlerNode:FeeSvcErrorHandler -->
<g id="edge23" class="edge">
<title>HttpGetClientNode:FeeServiceRequest-&gt;HttpErrorHandlerNode:FeeSvcErrorHandler</title>
<path fill="none" stroke="#000000" d="M374.1176,-365.3042C392.4307,-339.8403 425.8218,-293.4108 446.9188,-264.0759"/>
<polygon fill="#000000" stroke="#000000" points="449.7835,-266.0872 452.7807,-255.9251 444.1005,-262.0001 449.7835,-266.0872"/>
</g>
<!-- DataMapperNode:PaymentRequestPayaload -->
<g id="node18" class="node">
<title>DataMapperNode:PaymentRequestPayaload</title>
<polygon fill="none" stroke="#000000" points="49.2398,-219.5 49.2398,-255.5 314.8234,-255.5 314.8234,-219.5 49.2398,-219.5"/>
<text text-anchor="middle" x="182.0316" y="-233.3" font-family="Times,serif" font-size="14.00" fill="#000000">DataMapperNode:PaymentRequestPayaload</text>
</g>
<!-- VariableSetNode:ActualFeeVarSet&#45;&gt;DataMapperNode:PaymentRequestPayaload -->
<g id="edge17" class="edge">
<title>VariableSetNode:ActualFeeVarSet-&gt;DataMapperNode:PaymentRequestPayaload</title>
<path fill="none" stroke="#000000" d="M218.9192,-292.4551C213.1475,-283.8564 206.1311,-273.4034 199.7734,-263.9316"/>
<polygon fill="#000000" stroke="#000000" points="202.6538,-261.9427 194.1744,-255.5904 196.8417,-265.844 202.6538,-261.9427"/>
</g>
<!-- HttpPostClientNode:PaymentRequest -->
<g id="node19" class="node">
<title>HttpPostClientNode:PaymentRequest</title>
<polygon fill="none" stroke="#000000" points="68.2644,-146.5 68.2644,-182.5 295.7988,-182.5 295.7988,-146.5 68.2644,-146.5"/>
<text text-anchor="middle" x="182.0316" y="-160.3" font-family="Times,serif" font-size="14.00" fill="#000000">HttpPostClientNode:PaymentRequest</text>
</g>
<!-- DataMapperNode:PaymentRequestPayaload&#45;&gt;HttpPostClientNode:PaymentRequest -->
<g id="edge18" class="edge">
<title>DataMapperNode:PaymentRequestPayaload-&gt;HttpPostClientNode:PaymentRequest</title>
<path fill="none" stroke="#000000" d="M182.0316,-219.4551C182.0316,-211.3828 182.0316,-201.6764 182.0316,-192.6817"/>
<polygon fill="#000000" stroke="#000000" points="185.5317,-192.5903 182.0316,-182.5904 178.5317,-192.5904 185.5317,-192.5903"/>
</g>
<!-- LoggerNode:LogResponse -->
<g id="node20" class="node">
<title>LoggerNode:LogResponse</title>
<polygon fill="none" stroke="#000000" points="20.608,-73.5 20.608,-109.5 187.4552,-109.5 187.4552,-73.5 20.608,-73.5"/>
<text text-anchor="middle" x="104.0316" y="-87.3" font-family="Times,serif" font-size="14.00" fill="#000000">LoggerNode:LogResponse</text>
</g>
<!-- HttpPostClientNode:PaymentRequest&#45;&gt;LoggerNode:LogResponse -->
<g id="edge19" class="edge">
<title>HttpPostClientNode:PaymentRequest-&gt;LoggerNode:LogResponse</title>
<path fill="none" stroke="#000000" d="M162.7507,-146.4551C153.0943,-137.4177 141.2492,-126.3319 130.7332,-116.4899"/>
<polygon fill="#000000" stroke="#000000" points="133.0539,-113.8681 123.361,-109.5904 128.2706,-118.979 133.0539,-113.8681"/>
</g>
<!-- HttpErrorHandlerNode:PaymentSvcErrorHandler -->
<g id="node22" class="node">
<title>HttpErrorHandlerNode:PaymentSvcErrorHandler</title>
<polygon fill="none" stroke="#000000" points="205.8653,-73.5 205.8653,-109.5 500.1979,-109.5 500.1979,-73.5 205.8653,-73.5"/>
<text text-anchor="middle" x="353.0316" y="-87.3" font-family="Times,serif" font-size="14.00" fill="#000000">HttpErrorHandlerNode:PaymentSvcErrorHandler</text>
</g>
<!-- HttpPostClientNode:PaymentRequest&#45;&gt;HttpErrorHandlerNode:PaymentSvcErrorHandler -->
<g id="edge21" class="edge">
<title>HttpPostClientNode:PaymentRequest-&gt;HttpErrorHandlerNode:PaymentSvcErrorHandler</title>
<path fill="none" stroke="#000000" d="M224.3013,-146.4551C247.6291,-136.4964 276.7834,-124.0504 301.4452,-113.5223"/>
<polygon fill="#000000" stroke="#000000" points="302.8327,-116.7356 310.6556,-109.5904 300.0843,-110.2977 302.8327,-116.7356"/>
</g>
<!-- HttpCallerNode:RespondToCaller -->
<g id="node21" class="node">
<title>HttpCallerNode:RespondToCaller</title>
<polygon fill="none" stroke="#000000" points="0,-.5 0,-36.5 208.0632,-36.5 208.0632,-.5 0,-.5"/>
<text text-anchor="middle" x="104.0316" y="-14.3" font-family="Times,serif" font-size="14.00" fill="#000000">HttpCallerNode:RespondToCaller</text>
</g>
<!-- LoggerNode:LogResponse&#45;&gt;HttpCallerNode:RespondToCaller -->
<g id="edge20" class="edge">
<title>LoggerNode:LogResponse-&gt;HttpCallerNode:RespondToCaller</title>
<path fill="none" stroke="#000000" d="M104.0316,-73.4551C104.0316,-65.3828 104.0316,-55.6764 104.0316,-46.6817"/>
<polygon fill="#000000" stroke="#000000" points="107.5317,-46.5903 104.0316,-36.5904 100.5317,-46.5904 107.5317,-46.5903"/>
</g>
<g id="node23" class="node">
<title/>
<polygon fill="none" stroke="#000000" points="501.0316,-.5 501.0316,-36.5 555.0316,-36.5 555.0316,-.5 501.0316,-.5"/>
</g>
<!-- HttpErrorHandlerNode:PaymentSvcErrorHandler&#45;&gt; -->
<g id="edge22" class="edge">
<title>HttpErrorHandlerNode:PaymentSvcErrorHandler-&gt;</title>
<path fill="none" stroke="#000000" d="M396.29,-73.4551C425.5347,-61.2559 463.727,-45.3242 491.4549,-33.7577"/>
<polygon fill="#000000" stroke="#000000" points="492.9127,-36.942 500.7944,-29.8618 490.2177,-30.4815 492.9127,-36.942"/>
</g>
<!-- HttpErrorHandlerNode:FeeSvcErrorHandler&#45;&gt; -->
<g id="edge24" class="edge">
<title>HttpErrorHandlerNode:FeeSvcErrorHandler-&gt;</title>
<path fill="none" stroke="#000000" d="M473.0062,-219.1337C482.1619,-194.5475 498.3243,-149.4535 509.0316,-110 514.7507,-88.9267 519.7078,-64.7214 523.1235,-46.5018"/>
<polygon fill="#000000" stroke="#000000" points="526.59,-47.0021 524.9505,-36.5349 519.7047,-45.7399 526.59,-47.0021"/>
</g>
<!-- HttpErrorHandlerNode:ApptSvcErrorHandler&#45;&gt; -->
<g id="edge26" class="edge">
<title>HttpErrorHandlerNode:ApptSvcErrorHandler-&gt;</title>
<path fill="none" stroke="#000000" d="M627.0316,-584.062C627.0316,-556.3663 627.0316,-502.3785 627.0316,-456.5 627.0316,-456.5 627.0316,-456.5 627.0316,-164.5 627.0316,-115.0215 587.6007,-69.8445 558.5089,-43.2465"/>
<polygon fill="#000000" stroke="#000000" points="560.7941,-40.595 550.993,-36.5713 556.1457,-45.8288 560.7941,-40.595"/>
</g>
</g>
</svg>